<svg role="img" fill="currentColor" viewBox="0 0 24 24" xmlns="http://www.w3.org/2000/svg"><path d="m6.631 23.25c-1.161 0-2.146-.906-2.242-2.064l-1.329-15.936h-1.56c-.414 0-.75-.336-.75-.75s.336-.75.75-.75h6v-.75c0-1.241 1.009-2.25 2.25-2.25h4.5c1.241 0 2.25 1.009 2.25 2.25v.75h6c.414 0 .75.336.75.75s-.336.75-.75.75h-1.56l-1.328 15.937c-.096 1.157-1.081 2.063-2.242 2.063zm-.748-2.188c.032.386.36.688.748.688h10.739c.387 0 .716-.302.747-.688l1.318-15.812h-14.87zm9.117-17.312v-.75c0-.414-.336-.75-.75-.75h-4.5c-.414 0-.75.336-.75.75v.75z"/><path d="m9.75 18c-.414 0-.75-.336-.75-.75v-7.5c0-.414.336-.75.75-.75s.75.336.75.75v7.5c0 .414-.336.75-.75.75z"/><path d="m14.25 18c-.414 0-.75-.336-.75-.75v-7.5c0-.414.336-.75.75-.75s.75.336.75.75v7.5c0 .414-.336.75-.75.75z"/></svg>