<svg role="img" fill="currentColor" viewBox="0 0 24 24" xmlns="http://www.w3.org/2000/svg"><path d="m14.25 19.5c-.414 0-.75-.336-.75-.75v-4.5c0-.414.336-.75.75-.75h4.5c.414 0 .75.336.75.75v4.5c0 .414-.336.75-.75.75zm3.75-1.5v-3h-3v3z"/><path d="m.75 22.5c-.414 0-.75-.336-.75-.75s.336-.75.75-.75h.75v-10.12l-.306.225c-.13.095-.284.145-.444.145-.238 0-.464-.115-.605-.307-.119-.161-.167-.359-.137-.558.031-.198.136-.372.298-.491l10.363-7.6c.391-.285.851-.436 1.331-.436s.94.151 1.33.437l1.67 1.225v-1.27c0-.414.336-.75.75-.75h4.5c.413 0 .75.336.75.75v5.67l2.693 1.975c.333.244.406.715.162 1.048-.141.192-.367.307-.605.307-.161 0-.314-.05-.444-.146l-.306-.224v10.12h.75c.414 0 .75.336.75.75s-.336.75-.75.75zm20.25-1.5v-11.22l-8.556-6.275c-.131-.096-.285-.146-.444-.146-.16 0-.313.051-.444.146l-8.556 6.275v11.22h3v-5.25c0-1.241 1.009-2.25 2.25-2.25h1.5c1.241 0 2.25 1.009 2.25 2.25v5.25zm-10.5 0v-5.25c0-.414-.336-.75-.75-.75h-1.5c-.414 0-.75.336-.75.75v5.25zm9-14.18v-3.82h-3v1.62z"/></svg>