<svg role="img" fill="currentColor" viewBox="0 0 24 24" xmlns="http://www.w3.org/2000/svg"><path d="m4.5 24c-1.241 0-2.25-1.009-2.25-2.25v-18c0-1.241 1.009-2.25 2.25-2.25h6.879c.313-.885 1.161-1.5 2.121-1.5h3c.96 0 1.808.615 2.121 1.5h.879c1.241 0 2.25 1.009 2.25 2.25v18c0 1.241-1.009 2.25-2.25 2.25zm15-1.5c.414 0 .75-.336.75-.75v-18c0-.414-.336-.75-.75-.75h-.75v9.75c0 .304-.182.576-.463.693-.091.038-.188.057-.287.057-.2 0-.389-.078-.53-.22l-2.47-2.469-2.47 2.47c-.141.141-.33.219-.53.219-.099 0-.196-.019-.287-.057-.281-.116-.462-.388-.462-.693v-9.75h-3v19.5zm-15-19.5c-.414 0-.75.336-.75.75v18c0 .414.336.75.75.75h2.25v-19.5zm10.5 6c.2 0 .389.078.53.22l1.72 1.72v-8.69c0-.414-.336-.75-.75-.75h-3c-.414 0-.75.336-.75.75v8.689l1.72-1.72c.141-.141.33-.219.53-.219z"/></svg>