<svg role="img" fill="#ffffff" viewBox="0 0 24 24" xmlns="http://www.w3.org/2000/svg"><path d="m3.75 22.499c-2.068 0-3.75-1.682-3.75-3.75v-9c0-2.068 1.682-3.75 3.75-3.75h3.75c0-2.481 2.019-4.499 4.5-4.499s4.5 2.018 4.5 4.499h3.75c2.068 0 3.75 1.682 3.75 3.75v9c0 2.068-1.682 3.75-3.75 3.75zm16.5-1.5c1.241 0 2.25-1.009 2.25-2.25v-9c0-1.241-1.009-2.25-2.25-2.25h-2.25v13.5zm-3.75 0v-13.5h-.724c-.009 0-.018.001-.026.001h-7.5c-.009 0-.02 0-.03-.001h-.72v13.5zm-12.75-13.5c-1.241 0-2.25 1.009-2.25 2.25v9c0 1.241 1.009 2.25 2.25 2.25h2.25v-13.5zm11.25-1.5c0-1.654-1.346-2.999-3-2.999s-3 1.345-3 2.999z"/><path d="m12 14.999c-.414 0-.75-.336-.75-.75s.336-.75.75-.75c.62 0 1.125-.505 1.125-1.125s-.505-1.125-1.125-1.125-1.125.505-1.125 1.125c0 .414-.336.75-.75.75s-.75-.336-.75-.75c0-1.447 1.178-2.625 2.625-2.625 1.448 0 2.625 1.177 2.625 2.625 0 1.447-1.177 2.625-2.625 2.625z"/><circle cx="12" cy="17.624" r="1.125"/></svg>
