<svg role="img" fill="currentColor" viewBox="0 0 24 24" xmlns="http://www.w3.org/2000/svg"><defs/><path d="M18.75 22.5a5.27 5.27 0 01-5.2-4.5h-3.1A5.26 5.26 0 010 17.25v-12A3.75 3.75 0 013.74 1.5h.75a.75.75 0 010 1.5h-.75C2.51 3 1.5 4 1.5 5.25v8.33c.98-1 2.32-1.58 3.75-1.58 2.6 0 4.82 1.95 5.2 4.5h3.1a5.27 5.27 0 015.2-4.5c1.43 0 2.77.58 3.75 1.58V5.25A2.25 2.25 0 0020.25 3h-.75a.75.75 0 010-1.5h.75A3.75 3.75 0 0124 5.25v12c0 2.9-2.35 5.25-5.25 5.25zm0-9a3.75 3.75 0 100 7.5 3.75 3.75 0 000-7.5zm-13.5 0a3.75 3.75 0 100 7.5 3.75 3.75 0 000-7.5z"/></svg>