<svg role="img" fill="currentColor" viewBox="0 0 24 24" xmlns="http://www.w3.org/2000/svg"><defs/><path d="M23.25 24a.74.74 0 01-.53-.22L19.94 21H4.06l-2.78 2.78a.74.74 0 01-1.06 0 .75.75 0 010-1.06L1.94 21h-.19C.78 21 0 20.21 0 19.25v-7c0-.96.78-1.75 1.75-1.75H3V6.75c0-.41.34-.75.75-.75h.73c-.14-3.46-1.26-4.72-1.27-4.73A.75.75 0 014.28.22C4.44.38 5.83 1.89 5.98 6h.77c.41 0 .75.34.75.75v3.75h6.26a4.54 4.54 0 010-3h-1.01a.74.74 0 01-.73-.93l1.5-6a.75.75 0 01.73-.57h7.5c.34 0 .64.23.73.57l1.5 6a.75.75 0 01-.73.93h-1.01c.34.97.34 2.03 0 3h.01c.97 0 1.75.79 1.75 1.75v7c0 .96-.78 1.75-1.75 1.75h-.19l1.72 1.72a.75.75 0 01-.53 1.28zm-1-4.5c.14 0 .25-.11.25-.25v-7a.25.25 0 00-.25-.25H13.5v7.5zM1.5 19.25c0 .14.11.25.25.25H12v-3H1.5zM12 15v-3H1.75a.25.25 0 00-.25.25V15zm8.6-4.5c.52-.92.52-2.08 0-3h-5.2a3.04 3.04 0 000 3zM6 10.5v-3H4.5v3zM22.29 6l-1.13-4.5h-6.32L13.7 6z"/><path d="M17.25 15a.75.75 0 010-1.5h1.5a.75.75 0 010 1.5z"/></svg>