<?xml version="1.0" encoding="utf-8"?>
<!-- Generator: Adobe Illustrator 24.2.3, SVG Export Plug-In . SVG Version: 6.00 Build 0)  -->
<svg version="1.1" id="Capa_1" xmlns="http://www.w3.org/2000/svg" xmlns:xlink="http://www.w3.org/1999/xlink" x="0px" y="0px"
	 viewBox="0 0 562 562" style="enable-background:new 0 0 562 562;" xml:space="preserve">
<style type="text/css">
	.st0{stroke:#FFFFFF;stroke-width:8;stroke-miterlimit:10;}
	.st1{fill:#FFFFFF;stroke:#000000;stroke-width:29;stroke-miterlimit:10;}
</style>
<path class="st0" d="M541.7,126.6H20.3C9.1,126.6,0,135.7,0,146.9v258.1v129.4c1,8.5,5.6,21.4,24.1,23.8h5.2h512.4
	c11.2,0,20.3-9.1,20.3-20.3V146.9C562,135.7,552.9,126.6,541.7,126.6z M482.7,167.1L281,317.1l-201.7-150H482.7z M521.4,517.6H40.6
	V392V188.9l228.3,169.8c3.6,2.7,7.8,4,12.1,4c4.3,0,8.5-1.3,12.1-4l228.3-169.8V517.6z"/>
<circle class="st1" cx="285.4" cy="162" r="145.9"/>
<g>
	<g>
		<path d="M369.1,102.7c-8.6-8.6-22.5-8.6-31.1,0l-78.7,78.7l-31.6-31.6c-8.6-8.6-22.5-8.6-31.1,0s-8.6,22.5,0,31.1l47.1,47.1
			c4.1,4.1,9.7,6.4,15.6,6.4c5.8,0,11.4-2.3,15.6-6.4l94.3-94.3C377.7,125.2,377.7,111.3,369.1,102.7z"/>
	</g>
</g>
</svg>
