<svg role="img" fill="#ffffff" viewBox="0 0 24 24" xmlns="http://www.w3.org/2000/svg"><path d="m12 24c-6.617 0-12-5.383-12-12s5.383-12 12-12 12 5.383 12 12-5.383 12-12 12zm0-22.5c-5.79 0-10.5 4.71-10.5 10.5s4.71 10.5 10.5 10.5 10.5-4.71 10.5-10.5-4.71-10.5-10.5-10.5z"/><circle cx="8.25" cy="9" r="1.125"/><circle cx="15.75" cy="9" r="1.125"/><path d="m11.986 19.503c-1.159 0-2.276-.262-3.319-.779-1.462-.724-2.666-1.929-3.391-3.391-.089-.179-.103-.383-.039-.573s.198-.344.378-.432c.103-.051.218-.078.333-.078.287 0 .545.16.672.417.58 1.17 1.543 2.134 2.713 2.713.835.413 1.727.623 2.653.623 2.304 0 4.369-1.279 5.389-3.336.127-.257.385-.417.672-.417.115 0 .229.027.333.078.179.089.313.242.378.432.064.19.05.393-.039.573-1.274 2.573-3.854 4.17-6.733 4.17z"/></svg>
