<svg role="img" fill="currentColor" viewBox="0 0 24 24" xmlns="http://www.w3.org/2000/svg"><path d="m18.894 24.004c-.242 0-.485-.058-.702-.167l-6.192-3.066-6.187 3.064c-.217.109-.452.165-.696.165-.595 0-1.131-.33-1.398-.861-.172-.342-.212-.734-.114-1.103l1.85-6.721-4.993-4.945c-.295-.293-.459-.682-.461-1.098-.001-.415.159-.806.451-1.102.26-.263.607-.424.976-.455l6.018-.596 3.156-6.257c.193-.377.518-.654.917-.782.157-.051.32-.076.483-.076.246 0 .493.06.714.173.295.151.531.387.681.682.001.003 3.162 6.265 3.162 6.265l6.03.598c.845.07 1.48.823 1.409 1.677-.031.369-.192.715-.455.976l-4.989 4.944 1.849 6.715c.222.838-.275 1.698-1.108 1.919-.13.033-.265.051-.401.051zm-6.894-4.82c.115 0 .231.027.334.079l6.528 3.232c.012.006.022.009.032.009.05-.011.07-.046.061-.079l-1.963-7.131c-.072-.261.003-.541.195-.732l5.3-5.253c.009-.009.015-.021.016-.034.002-.03-.021-.057-.05-.06l-6.452-.639c-.257-.026-.479-.178-.596-.408l-3.345-6.629c-.006-.011-.016-.021-.029-.028-.009-.005-.02-.007-.031-.007-.04.009-.053.02-.062.037l-3.338 6.622c-.116.23-.339.383-.596.409l-6.44.638c-.032.002-.043.013-.046.016-.011.011-.016.024-.016.039s.005.028.016.038l5.304 5.253c.192.19.267.47.195.732l-1.965 7.138c-.002.006-.002.022.006.039.013.025.039.034.057.034.01 0 .019-.002.027-.006l6.524-3.231c.103-.051.219-.078.334-.078z"/></svg>