<svg role="img" fill="currentColor" viewBox="0 0 24 24" xmlns="http://www.w3.org/2000/svg"><path d="m12 12.75c-2.481 0-4.5-2.019-4.5-4.5s2.019-4.5 4.5-4.5 4.5 2.019 4.5 4.5-2.019 4.5-4.5 4.5zm0-7.5c-1.654 0-3 1.346-3 3s1.346 3 3 3 3-1.346 3-3-1.346-3-3-3z"/><path d="m11.998 24.001c-.294 0-.58-.087-.827-.25-.168-.111-.309-.253-.421-.421-.702-1.057-2.448-3.866-4.039-6.925-1.965-3.78-2.961-6.523-2.961-8.155 0-4.549 3.701-8.25 8.25-8.25s8.25 3.701 8.25 8.25c0 1.631-.996 4.375-2.961 8.155-1.59 3.058-3.337 5.867-4.039 6.925-.221.334-.56.562-.952.641-.099.02-.2.03-.3.03zm.002-22.501c-3.722 0-6.75 3.028-6.75 6.75 0 2.88 4.396 10.702 6.75 14.25 2.354-3.548 6.75-11.371 6.75-14.25 0-3.721-3.028-6.75-6.75-6.75z"/></svg>