<svg role="img" fill="#b5b5c3" viewBox="0 0 24 24" xmlns="http://www.w3.org/2000/svg"><path d="m2.25 24c-1.241 0-2.25-1.009-2.25-2.25v-16.5c0-1.241 1.009-2.25 2.25-2.25h3.75v-2.25c0-.414.336-.75.75-.75s.75.336.75.75v2.25h9v-2.25c0-.414.336-.75.75-.75s.75.336.75.75v2.25h3.75c1.241 0 2.25 1.009 2.25 2.25v16.5c0 1.241-1.009 2.25-2.25 2.25zm-.75-2.25c0 .414.336.75.75.75h19.5c.414 0 .75-.336.75-.75v-11.25h-21zm21-12.75v-3.75c0-.414-.336-.75-.75-.75h-3.75v1.5c0 .414-.336.75-.75.75s-.75-.336-.75-.75v-1.5h-9v1.5c0 .414-.336.75-.75.75s-.75-.336-.75-.75v-1.5h-3.75c-.414 0-.75.336-.75.75v3.75z"/><circle cx="5.625" cy="13.875" r="1.125"/><circle cx="5.625" cy="19.125" r="1.125"/><circle cx="12" cy="13.875" r="1.125"/><circle cx="12" cy="19.125" r="1.125"/><circle cx="18.375" cy="13.875" r="1.125"/><path d="m18.375 20.25c-.62 0-1.125-.505-1.125-1.125s.505-1.125 1.125-1.125c.014 0 .03.001.046.003.01.001.019.002.027.003.583.029 1.052.521 1.052 1.12 0 .619-.505 1.124-1.125 1.124z"/></svg>
