<svg role="img" fill="#b5b5c3" viewBox="0 0 24 24" xmlns="http://www.w3.org/2000/svg"><path d="m4.125 24c-1.241 0-2.25-1.009-2.25-2.25v-16.125c0-.414.336-.75.75-.75s.75.336.75.75v16.125c0 .414.336.75.75.75h13.5c.414 0 .75.336.75.75s-.337.75-.75.75z"/><path d="m7.364 20.75c-1.405-.039-2.522-1.209-2.489-2.608v-15.55c-.032-1.387 1.08-2.553 2.479-2.592h8.921c.675.003 1.324.286 1.784.775l3.346 3.521c.467.496.722 1.141.719 1.819v12.039c.029 1.389-1.083 2.556-2.479 2.595h-12.271c-.003.001-.006.001-.01.001zm.016-19.25c-.568.018-1.019.499-1.005 1.074v15.585c-.013.59.444 1.075 1.021 1.092h12.229c.56-.016 1.014-.497 1-1.073v-12.065c.001-.294-.109-.573-.309-.786l-3.346-3.521c-.182-.193-.436-.304-.698-.306z"/></svg>
