<svg role="img" fill="currentColor" viewBox="0 0 24 24" xmlns="http://www.w3.org/2000/svg"><path d="m13.5 17.25c-1.241 0-2.25-1.009-2.25-2.25v-3.75h-.75c-.414 0-.75-.336-.75-.75s.336-.75.75-.75h.75c.827 0 1.5.673 1.5 1.5v3.75c0 .414.336.75.75.75h.75c.414 0 .75.336.75.75s-.336.75-.75.75z"/><circle cx="11.625" cy="7.125" r="1.125"/><path d="m12 24c-6.617 0-12-5.383-12-12s5.383-12 12-12 12 5.383 12 12-5.383 12-12 12zm0-22.5c-5.79 0-10.5 4.71-10.5 10.5s4.71 10.5 10.5 10.5 10.5-4.71 10.5-10.5-4.71-10.5-10.5-10.5z"/></svg>