<svg role="img" fill="currentColor" viewBox="0 0 24 24" xmlns="http://www.w3.org/2000/svg"><path d="m11.998 24c-6.617 0-12-5.383-12-12s5.383-12 12-12 12 5.383 12 12-5.383 12-12 12zm0-22.5c-5.79 0-10.5 4.71-10.5 10.5s4.71 10.5 10.5 10.5 10.5-4.71 10.5-10.5-4.71-10.5-10.5-10.5z"/><path d="m16.498 17.25c-.2 0-.389-.078-.53-.22l-3.97-3.97-3.969 3.97c-.141.142-.33.22-.53.22s-.389-.078-.53-.22c-.142-.142-.22-.33-.22-.53s.078-.389.22-.53l3.968-3.97-3.97-3.97c-.142-.141-.22-.33-.22-.53s.078-.389.22-.53c.141-.142.33-.22.53-.22s.389.078.53.22l3.97 3.97 3.969-3.97c.142-.142.33-.22.53-.22s.389.078.53.22c.142.141.22.33.22.53s-.078.389-.22.53l-3.968 3.97 3.97 3.97c.142.142.22.33.22.53s-.078.389-.22.53-.33.22-.53.22z"/></svg>