<svg role="img" fill="currentColor" viewBox="0 0 24 24" xmlns="http://www.w3.org/2000/svg"><path d="m.75 18.001c-.414-.001-.75-.337-.75-.751.003-4.134 3.369-7.498 7.503-7.498 1.02.001 2.008.203 2.941.6.184.078.327.224.402.41s.073.39-.006.574c-.118.277-.388.456-.69.456-.101 0-.2-.02-.294-.06-.747-.318-1.537-.48-2.349-.48-1.606 0-3.112.623-4.246 1.755-1.135 1.133-1.76 2.64-1.761 4.243 0 .415-.337.751-.75.751z"/><path d="m7.5 9.751c-2.688 0-4.875-2.187-4.875-4.875s2.187-4.875 4.875-4.875 4.875 2.187 4.875 4.875-2.187 4.875-4.875 4.875zm0-8.25c-1.861 0-3.375 1.514-3.375 3.375s1.514 3.375 3.375 3.375 3.375-1.514 3.375-3.375-1.514-3.375-3.375-3.375z"/><path d="m17.25 23.999c-1.789 0-3.475-.695-4.749-1.957-.008-.007-.016-.014-.024-.022-.01-.01-.019-.02-.028-.031-1.252-1.257-1.95-2.946-1.95-4.74 0-3.722 3.028-6.75 6.75-6.75 1.783 0 3.464.691 4.736 1.945.013.01.025.021.036.031.01.01.021.023.031.036 1.254 1.266 1.948 2.95 1.948 4.738 0 3.722-3.028 6.75-6.75 6.75zm-3.142-2.549c.906.679 2.007 1.049 3.142 1.049 2.895 0 5.25-2.355 5.25-5.25 0-1.135-.37-2.236-1.049-3.142zm3.142-9.451c-2.895 0-5.25 2.355-5.25 5.25 0 1.135.37 2.235 1.048 3.141l7.343-7.343c-.906-.678-2.006-1.048-3.141-1.048z"/></svg>