<svg role="img" fill="currentColor" viewBox="0 0 24 24" xmlns="http://www.w3.org/2000/svg"><path d="M11.296 14.994a2.277 2.277 0 0 1-1.856-.953L6.146 9.43a.751.751 0 0 1 1.221-.872l3.294 4.611a.767.767 0 0 0 .635.325.767.767 0 0 0 .593-.279L22.68.263a.747.747 0 0 1 1.056-.096.742.742 0 0 1 .267.508.742.742 0 0 1-.171.548L13.04 14.175a2.257 2.257 0 0 1-1.744.819z"/><path d="M11.253 23.97c-2.082 0-4.12-.581-5.896-1.679-5.269-3.261-6.902-10.2-3.642-15.469 2.062-3.332 5.641-5.321 9.573-5.321 2.082 0 4.12.581 5.895 1.679a.748.748 0 1 1-.79 1.275 9.705 9.705 0 0 0-5.107-1.454c-3.408 0-6.51 1.724-8.296 4.61-2.825 4.565-1.41 10.578 3.156 13.404a9.697 9.697 0 0 0 5.107 1.455c3.408 0 6.51-1.724 8.297-4.611a9.717 9.717 0 0 0 .574-9.176.747.747 0 0 1 .37-.995.75.75 0 0 1 .994.37 11.215 11.215 0 0 1-.662 10.59c-2.062 3.332-5.64 5.322-9.573 5.322z"/></svg>