<svg role="img" fill="currentColor" viewBox="0 0 24 24" xmlns="http://www.w3.org/2000/svg"><path d="m4.5 24c-1.241 0-2.25-1.009-2.25-2.25v-15.75c0-1.241 1.009-2.25 2.25-2.25h3.063c.361-2.129 2.247-3.75 4.437-3.75s4.076 1.621 4.437 3.75h3.063c1.241 0 2.25 1.009 2.25 2.25v15.75c0 1.241-1.009 2.25-2.25 2.25zm0-18.75c-.414 0-.75.336-.75.75v15.75c0 .414.336.75.75.75h15c.414 0 .75-.336.75-.75v-15.75c0-.414-.336-.75-.75-.75h-3.75c-.414 0-.75-.336-.75-.75 0-1.654-1.346-3-3-3s-3 1.346-3 3c0 .414-.336.75-.75.75z"/><circle cx="12" cy="4.125" r="1.125"/><path d="m6.75 11.25c-.414 0-.75-.336-.75-.75s.336-.75.75-.75h5.25c.414 0 .75.336.75.75s-.336.75-.75.75z"/><path d="m15 11.25c-.414 0-.75-.336-.75-.75s.336-.75.75-.75h2.25c.414 0 .75.336.75.75s-.336.75-.75.75z"/><path d="m12 15c-.414 0-.75-.336-.75-.75s.336-.75.75-.75h5.25c.414 0 .75.336.75.75s-.336.75-.75.75z"/><path d="m6.75 15c-.414 0-.75-.336-.75-.75s.336-.75.75-.75h2.25c.414 0 .75.336.75.75s-3 .75-3 .75z"/><path d="m6.75 18.75c-.414 0-.75-.336-.75-.75s.336-.75.75-.75h5.25c.414 0 .75.336.75.75s-.336.75-.75.75z"/><path d="m15 18.75c-.414 0-.75-.336-.75-.75s.336-.75.75-.75h2.25c.414 0 .75.336.75.75s-.336.75-.75.75z"/></svg>