<svg role="img" fill="currentColor" viewBox="0 0 24 24" xmlns="http://www.w3.org/2000/svg"><path d="m8.25 18c-1.241 0-2.25-1.009-2.25-2.25v-4.5c0-.96.615-1.808 1.5-2.121v-1.629c0-2.481 2.019-4.5 4.5-4.5s4.5 2.019 4.5 4.5v1.629c.885.313 1.5 1.161 1.5 2.121v4.5c0 1.241-1.009 2.25-2.25 2.25zm0-7.5c-.414 0-.75.336-.75.75v4.5c0 .414.336.75.75.75h7.5c.414 0 .75-.336.75-.75v-4.5c0-.414-.336-.75-.75-.75zm6.75-1.5v-1.5c0-1.654-1.346-3-3-3s-3 1.346-3 3v1.5z"/><path d="m12 14.625c-.62 0-1.125-.505-1.125-1.125s.505-1.125 1.125-1.125c.304.001.586.118.798.331s.328.495.327.796c0 .619-.505 1.123-1.125 1.123z"/><path d="m12 24c-.066 0-.131-.009-.194-.026-7.723-2.06-11.806-6.719-11.806-13.474v-9.75c0-.414.336-.75.75-.75h22.5c.414 0 .75.336.75.75v9.75c0 6.755-4.083 11.414-11.807 13.475-.062.016-.127.025-.193.025zm-10.5-13.5c0 6.031 3.532 10.059 10.5 11.973 6.968-1.915 10.5-5.942 10.5-11.973v-9h-21z"/></svg>