<svg role="img" fill="currentColor" viewBox="0 0 24 24" xmlns="http://www.w3.org/2000/svg"><path d="m23.25 23.999c-.2 0-.389-.078-.53-.22l-10.72-10.719-10.72 10.719c-.142.142-.33.22-.53.22s-.389-.078-.53-.22c-.292-.292-.292-.768 0-1.061l10.72-10.72-10.72-10.719c-.142-.141-.22-.33-.22-.53s.078-.389.22-.53c.141-.142.33-.22.53-.22s.389.078.53.22l10.72 10.719 10.72-10.72c.142-.142.33-.22.53-.22s.389.078.53.22c.142.142.22.331.22.531s-.078.389-.22.53l-10.72 10.72 10.72 10.72c.292.292.292.768 0 1.061-.141.141-.33.219-.53.219z"/></svg>