<svg role="img" fill="currentColor" viewBox="0 0 24 24" xmlns="http://www.w3.org/2000/svg"><path d="m8.25 24c-1.241 0-2.25-1.009-2.25-2.25v-10.5c0-1.241 1.009-2.25 2.25-2.25h2.25v-3c0-2.481-2.019-4.5-4.5-4.5s-4.5 2.019-4.5 4.5v3.75c0 .414-.336.75-.75.75s-.75-.336-.75-.75v-3.75c0-3.308 2.692-6 6-6s6 2.692 6 6v3h9.75c1.241 0 2.25 1.009 2.25 2.25v10.5c0 1.241-1.009 2.25-2.25 2.25zm0-13.5c-.414 0-.75.336-.75.75v10.5c0 .414.336.75.75.75h13.5c.414 0 .75-.336.75-.75v-10.5c0-.414-.336-.75-.75-.75z"/><path d="m15 17.25c-.62 0-1.125-.505-1.125-1.125s.505-1.125 1.125-1.125c.304.001.586.118.798.331s.328.495.327.796c0 .619-.505 1.123-1.125 1.123z"/></svg>