<svg role="img" fill="currentColor" viewBox="0 0 24 24" xmlns="http://www.w3.org/2000/svg"><path d="m9.675 22.407c-5.789-.475-9.675-2.546-9.675-5.156v-12c0-2.993 5.159-5.25 12-5.25s12 2.257 12 5.25v5.28c0 .414-.336.75-.75.75s-.75-.336-.75-.75v-2.653c-.687.542-1.596 1.018-2.715 1.422-.082.03-.167.045-.254.045-.315 0-.598-.199-.706-.495-.068-.188-.059-.392.027-.574.085-.181.236-.319.424-.387 2.019-.729 3.224-1.715 3.224-2.638 0-1.533-3.739-3.75-10.5-3.75s-10.5 2.217-10.5 3.75 3.739 3.75 10.5 3.75c.414 0 .75.336.75.75s-.336.75-.75.75c-4.477 0-8.446-1.016-10.5-2.637v3.387c0 1.268 2.376 2.88 6.916 3.509.198.027.374.13.495.29s.172.357.145.555c-.051.369-.37.647-.742.647-.034 0-.069-.002-.104-.007-2.952-.409-5.288-1.239-6.71-2.368v3.373c0 1.465 3.102 3.235 8.293 3.66.2.016.381.109.511.262s.192.347.176.546c-.032.386-.36.689-.747.689-.019.002-.038.001-.058 0z"/><path d="m17.25 24.001c-3.722 0-6.75-3.028-6.75-6.75s3.028-6.75 6.75-6.75 6.75 3.028 6.75 6.75-3.028 6.75-6.75 6.75zm0-12c-2.895 0-5.25 2.355-5.25 5.25s2.355 5.25 5.25 5.25 5.25-2.355 5.25-5.25-2.355-5.25-5.25-5.25z"/><path d="m17.25 21.001c-.414 0-.75-.336-.75-.75v-2.25h-2.25c-.414 0-.75-.336-.75-.75s.336-.75.75-.75h2.25v-2.25c0-.414.336-.75.75-.75s.75.336.75.75v2.25h2.25c.414 0 .75.336.75.75s-.336.75-.75.75h-2.25v2.25c0 .414-.336.75-.75.75z"/></svg>