<svg role="img" fill="currentColor" viewBox="0 0 24 24" xmlns="http://www.w3.org/2000/svg"><path d="m11.25 23.25c-.2 0-.389-.078-.53-.22l-10.5-10.5c-.07-.07-.125-.152-.163-.245-.003-.008-.007-.017-.01-.026-.031-.085-.047-.171-.047-.259 0-.089.016-.176.048-.261.002-.007.005-.014.008-.021.04-.097.095-.179.166-.249l10.498-10.499c.142-.142.33-.22.53-.22s.389.078.53.22c.142.141.22.33.22.53s-.078.389-.22.53l-9.22 9.22h20.69c.414 0 .75.336.75.75s-.336.75-.75.75h-20.689l9.22 9.22c.292.292.292.768 0 1.061-.142.141-.331.219-.531.219z"/></svg>
