<svg role="img" fill="currentColor" viewBox="0 0 24 24" xmlns="http://www.w3.org/2000/svg"><path d="M6.53 11.25a.75.75 0 0 1-.42-.13L4.08 9.77a4.1 4.1 0 0 1 2.27-7.52h7.37V.75a.75.75 0 0 1 .75-.75c.17 0 .33.06.46.16l5.78 4.5a.75.75 0 0 1 0 1.18l-5.78 4.5a.75.75 0 0 1-1.21-.59v-1.5H8.03a.75.75 0 0 0-.75.75v1.5a.75.75 0 0 1-.75.75zm-.18-7.5a2.6 2.6 0 0 0-1.44 4.77l.87.58V9c0-1.24 1.01-2.25 2.25-2.25h6.44c.41 0 .75.34.75.75v.72l3.8-2.97-3.8-2.97V3c0 .41-.34.75-.75.75zM9.75 24a.74.74 0 0 1-.44-.14l-6.22-4.5a.75.75 0 0 1 0-1.22l6.22-4.5a.74.74 0 0 1 .78-.06c.26.13.41.39.41.67v1.5h5.47c.41 0 .75-.34.75-.75v-1.5a.75.75 0 0 1 1.17-.62l2.04 1.35a4.11 4.11 0 0 1-2.27 7.52H10.5v1.5a.75.75 0 0 1-.75.75zM9 21.78V21c0-.41.34-.75.75-.75h7.9a2.6 2.6 0 0 0 1.45-4.77l-.88-.58v.1c0 1.24-1.01 2.25-2.25 2.25H9.75A.75.75 0 0 1 9 16.5v-.78l-4.19 3.03z"/></svg>